<?xml version="1.0" encoding="UTF-8"?>
<!DOCTYPE svg PUBLIC "-//W3C//DTD SVG 1.1//EN" "http://www.w3.org/Graphics/SVG/1.1/DTD/svg11.dtd">
<svg xmlns="http://www.w3.org/2000/svg" version="1.1" width="263px" height="165px" style="shape-rendering:geometricPrecision; text-rendering:geometricPrecision; image-rendering:optimizeQuality; fill-rule:evenodd; clip-rule:evenodd" xmlns:xlink="http://www.w3.org/1999/xlink">
<g><path style="opacity:0.994" fill="#033c6c" d="M 115.5,-0.5 C 126.167,-0.5 136.833,-0.5 147.5,-0.5C 162.81,0.571016 175.643,6.90435 186,18.5C 197.092,32.6024 203.592,48.6024 205.5,66.5C 222.837,66.3334 240.17,66.5001 257.5,67C 258.737,67.2321 259.737,67.7321 260.5,68.5C 259.081,69.4511 257.415,69.7845 255.5,69.5C 237.5,69.5 219.5,69.5 201.5,69.5C 197.534,68.8379 193.534,68.5045 189.5,68.5C 190.091,67.8485 190.757,67.1818 191.5,66.5C 189.282,57.2785 186.615,48.2785 183.5,39.5C 182.325,39.719 181.325,39.3857 180.5,38.5C 180.023,37.069 179.357,35.7357 178.5,34.5C 174.358,32.191 171.024,29.0243 168.5,25C 156.326,18.0134 143.993,17.6801 131.5,24C 116.801,34.5205 108.135,48.6872 105.5,66.5C 103.219,82.2173 104.719,97.5506 110,112.5C 115.696,125.194 124.529,135.027 136.5,142C 153.779,146.006 167.946,141.173 179,127.5C 181.986,122.199 184.986,116.865 188,111.5C 189.176,106.797 190.342,102.13 191.5,97.5C 189.167,97.5 186.833,97.5 184.5,97.5C 206.33,96.668 228.33,96.168 250.5,96C 251.056,95.6174 251.389,95.1174 251.5,94.5C 251.842,93.6618 252.508,93.3284 253.5,93.5C 254.922,92.075 256.589,91.075 258.5,90.5C 258.16,93.6748 256.493,95.8415 253.5,97C 237.503,97.4999 221.503,97.6666 205.5,97.5C 202.901,119.2 193.567,137.367 177.5,152C 162.526,162.227 146.193,165.727 128.5,162.5C 135.508,162.666 142.508,162.5 149.5,162C 129.044,159.691 113.878,149.524 104,131.5C 92.5674,109.04 88.9007,85.3729 93,60.5C 85.9449,77.0828 74.7783,90.2494 59.5,100C 56.6353,100.183 53.9686,100.683 51.5,101.5C 51.5,102.5 51.5,103.5 51.5,104.5C 50.596,103.791 50.2627,102.791 50.5,101.5C 33.5,101.5 16.5,101.5 -0.5,101.5C -0.5,99.5 -0.5,97.5 -0.5,95.5C 7.63552,91.5397 14.8022,86.2064 21,79.5C 33.0533,63.7803 44.72,47.7803 56,31.5C 65.0427,20.456 75.876,11.6227 88.5,5C 97.5125,2.5538 106.513,0.720471 115.5,-0.5 Z M 129.5,2.5 C 126.357,4.23474 123.024,5.73474 119.5,7C 120.34,8.66647 119.84,8.83314 118,7.5C 116.184,8.32949 114.351,9.16282 112.5,10C 111.402,10.7697 111.402,11.603 112.5,12.5C 109.931,11.5804 107.597,12.2471 105.5,14.5C 104.269,15.6507 104.269,16.8173 105.5,18C 104.451,18.4922 103.451,18.3256 102.5,17.5C 100.807,19.0267 98.9734,20.3601 97,21.5C 96.5304,22.5768 96.6971,23.5768 97.5,24.5C 93.7787,25.0597 91.4454,27.2263 90.5,31C 91.0933,32.8817 92.4267,33.8817 94.5,34C 92.144,34.1554 89.8107,34.1554 87.5,34C 85.9684,36.0344 84.6351,38.2011 83.5,40.5C 84.4209,42.756 86.0876,43.756 88.5,43.5C 90.8205,42.5815 92.9871,41.2482 95,39.5C 95.7922,37.4127 96.9588,35.5793 98.5,34C 97.5,33.6667 96.5,33.3333 95.5,33C 101.125,32.2144 104.792,29.0477 106.5,23.5C 109.317,20.3371 112.65,18.0038 116.5,16.5C 101.118,34.2448 87.9511,53.5781 77,74.5C 74.6658,78 71.8325,81 68.5,83.5C 65.6285,82.1667 62.7952,80.5001 60,78.5C 57.2329,80.7583 55.0662,83.4249 53.5,86.5C 53.6799,87.5539 54.0133,88.5539 54.5,89.5C 57.1562,90.6145 59.8229,90.6145 62.5,89.5C 60.9062,90.983 59.2395,92.483 57.5,94C 52.5111,94.4993 47.5111,94.6659 42.5,94.5C 48.8098,87.2227 54.6431,79.556 60,71.5C 68.9145,55.3311 78.5812,39.6644 89,24.5C 95.1566,16.1683 102.657,9.50166 111.5,4.5C 114.479,3.68268 117.479,2.84935 120.5,2C 123.696,1.19549 126.696,1.36216 129.5,2.5 Z M 101.5,4.5 C 102.919,3.54885 104.585,3.21552 106.5,3.5C 105.329,4.34464 103.995,5.01131 102.5,5.5C 102.5,4.83333 102.167,4.5 101.5,4.5 Z M 23.5,94.5 C 22.8333,94.5 22.1667,94.5 21.5,94.5C 23.424,92.9098 23.7573,91.0765 22.5,89C 19.4929,88.6987 16.4929,88.8654 13.5,89.5C 15.1423,88.197 16.8089,86.8637 18.5,85.5C 21.7672,83.917 24.7672,84.2504 27.5,86.5C 29.6574,84.2082 31.8241,81.8749 34,79.5C 34.624,77.5355 34.124,75.8689 32.5,74.5C 30.5504,75.3721 28.5504,76.0388 26.5,76.5C 27.1667,75.1667 28.1667,74.1667 29.5,73.5C 31.5504,73.0388 33.5504,72.3721 35.5,71.5C 36.7493,73.4755 38.2493,73.8088 40,72.5C 41.5,70.1667 43,67.8333 44.5,65.5C 42.5592,62.1897 39.8926,61.523 36.5,63.5C 37.1667,62.1667 37.8333,60.8333 38.5,59.5C 40.4234,60.1182 42.4234,59.7849 44.5,58.5C 45.7193,59.2634 46.7193,60.2634 47.5,61.5C 49.7349,58.7089 51.7349,55.7089 53.5,52.5C 51.5592,49.1897 48.8926,48.523 45.5,50.5C 45.3284,49.5084 45.6618,48.8417 46.5,48.5C 48.4008,48.5668 50.2341,48.2335 52,47.5C 53.3932,48.6151 54.8932,49.1151 56.5,49C 58.8497,46.1315 60.5164,42.9648 61.5,39.5C 65.6613,37.1421 67.6613,33.8088 67.5,29.5C 70.787,28.736 73.4537,26.9027 75.5,24C 72.8179,21.6697 73.1512,21.1697 76.5,22.5C 79.5651,21.024 80.8985,18.8573 80.5,16C 81.549,15.5078 82.549,15.6744 83.5,16.5C 87.7424,12.0528 92.7424,9.21946 98.5,8C 90.7354,13.761 83.5687,20.261 77,27.5C 64.1578,47.3438 50.1578,66.3438 35,84.5C 31.5903,88.4158 27.757,91.7492 23.5,94.5 Z M 122.5,11.5 C 121.738,13.2624 120.404,14.2624 118.5,14.5C 119.262,12.7376 120.596,11.7376 122.5,11.5 Z"/></g>
<g><path style="opacity:1" fill="#1a4f7c" d="M 189.5,68.5 C 187.585,68.7845 185.919,68.4511 184.5,67.5C 185.777,66.3064 186.444,64.6397 186.5,62.5C 186.333,60.8333 186.167,59.1667 186,57.5C 185.29,56.0267 184.124,55.3601 182.5,55.5C 182.511,53.4534 182.844,51.4534 183.5,49.5C 183.167,48.8333 182.833,48.1667 182.5,47.5C 181.262,51.3107 180.596,51.3107 180.5,47.5C 179.5,47.5 178.5,47.5 177.5,47.5C 177.5,47.1667 177.5,46.8333 177.5,46.5C 176.545,44.2543 175.878,41.921 175.5,39.5C 171.921,39.2343 171.587,37.901 174.5,35.5C 172.045,34.0714 169.545,32.7381 167,31.5C 164.589,32.1273 162.089,32.1273 159.5,31.5C 157.708,31.634 156.042,31.3007 154.5,30.5C 146.528,28.5405 139.528,30.3739 133.5,36C 132.207,36.49 130.873,36.6567 129.5,36.5C 129.5,37.5 129.5,38.5 129.5,39.5C 127.748,41.2459 126.415,43.2459 125.5,45.5C 123.75,46.6594 122.75,48.326 122.5,50.5C 121.685,51.4293 120.852,52.4293 120,53.5C 117.783,59.5438 115.949,65.5438 114.5,71.5C 113.182,74.2575 112.515,77.4242 112.5,81C 113.161,89.2809 114.661,97.4475 117,105.5C 118.12,108.768 119.954,111.435 122.5,113.5C 124.756,117.097 127.423,120.431 130.5,123.5C 130.859,125.371 131.859,126.871 133.5,128C 136.709,128.878 139.709,130.211 142.5,132C 145.333,132.167 148.167,132.333 151,132.5C 154.252,132.481 157.085,131.814 159.5,130.5C 160.609,129.71 161.942,129.21 163.5,129C 167.334,125.998 171,122.831 174.5,119.5C 175.8,118.892 177.133,118.225 178.5,117.5C 179.647,117.818 180.481,118.484 181,119.5C 182.663,117.842 183.496,115.842 183.5,113.5C 182.325,113.719 181.325,113.386 180.5,112.5C 183.849,108.034 185.183,103.034 184.5,97.5C 186.833,97.5 189.167,97.5 191.5,97.5C 190.342,102.13 189.176,106.797 188,111.5C 184.986,116.865 181.986,122.199 179,127.5C 167.946,141.173 153.779,146.006 136.5,142C 124.529,135.027 115.696,125.194 110,112.5C 104.719,97.5506 103.219,82.2173 105.5,66.5C 108.135,48.6872 116.801,34.5205 131.5,24C 143.993,17.6801 156.326,18.0134 168.5,25C 171.024,29.0243 174.358,32.191 178.5,34.5C 179.357,35.7357 180.023,37.069 180.5,38.5C 181.325,39.3857 182.325,39.719 183.5,39.5C 186.615,48.2785 189.282,57.2785 191.5,66.5C 190.757,67.1818 190.091,67.8485 189.5,68.5 Z"/></g>
<g><path style="opacity:0.91" fill="#3a6284" d="M 130.5,1.5 C 133.518,1.33537 136.518,1.50204 139.5,2C 135.216,3.80922 131.216,5.97588 127.5,8.5C 126.078,9.92499 124.411,10.925 122.5,11.5C 120.596,11.7376 119.262,12.7376 118.5,14.5C 117.833,14.5 117.5,14.8333 117.5,15.5C 116.833,15.5 116.5,15.8333 116.5,16.5C 112.65,18.0038 109.317,20.3371 106.5,23.5C 104.792,29.0477 101.125,32.2144 95.5,33C 96.5,33.3333 97.5,33.6667 98.5,34C 96.9588,35.5793 95.7922,37.4127 95,39.5C 92.9871,41.2482 90.8205,42.5815 88.5,43.5C 86.0876,43.756 84.4209,42.756 83.5,40.5C 84.6351,38.2011 85.9684,36.0344 87.5,34C 89.8107,34.1554 92.144,34.1554 94.5,34C 92.4267,33.8817 91.0933,32.8817 90.5,31C 91.4454,27.2263 93.7787,25.0597 97.5,24.5C 96.6971,23.5768 96.5304,22.5768 97,21.5C 98.9734,20.3601 100.807,19.0267 102.5,17.5C 103.451,18.3256 104.451,18.4922 105.5,18C 104.269,16.8173 104.269,15.6507 105.5,14.5C 107.597,12.2471 109.931,11.5804 112.5,12.5C 111.402,11.603 111.402,10.7697 112.5,10C 114.351,9.16282 116.184,8.32949 118,7.5C 119.84,8.83314 120.34,8.66647 119.5,7C 123.024,5.73474 126.357,4.23474 129.5,2.5C 130.167,2.5 130.5,2.16667 130.5,1.5 Z"/></g>
<g><path style="opacity:1" fill="#475e50" d="M 154.5,30.5 C 149.363,30.494 144.363,31.3274 139.5,33C 136.532,35.8142 133.199,37.9809 129.5,39.5C 129.5,38.5 129.5,37.5 129.5,36.5C 130.873,36.6567 132.207,36.49 133.5,36C 139.528,30.3739 146.528,28.5405 154.5,30.5 Z"/></g>
<g><path style="opacity:1" fill="#295266" d="M 159.5,31.5 C 162.089,32.1273 164.589,32.1273 167,31.5C 169.545,32.7381 172.045,34.0714 174.5,35.5C 171.587,37.901 171.921,39.2343 175.5,39.5C 175.878,41.921 176.545,44.2543 177.5,46.5C 172.648,40.0807 166.648,35.0807 159.5,31.5 Z"/></g>
<g><path style="opacity:1" fill="#0a3c69" d="M 155.5,36.5 C 169.541,42.2022 177.541,52.5355 179.5,67.5C 169.342,68.6585 159.008,68.8252 148.5,68C 147.286,65.6494 146.452,63.1494 146,60.5C 145.292,59.6195 144.458,58.9528 143.5,58.5C 143.002,55.6737 141.669,53.3403 139.5,51.5C 138.381,48.112 136.381,45.2787 133.5,43C 136.222,40.6422 139.222,38.8089 142.5,37.5C 146.768,36.6274 151.102,36.2941 155.5,36.5 Z"/></g>
<g><path style="opacity:1" fill="#e5c339" d="M 154.5,30.5 C 156.042,31.3007 157.708,31.634 159.5,31.5C 166.648,35.0807 172.648,40.0807 177.5,46.5C 177.5,46.8333 177.5,47.1667 177.5,47.5C 179.868,50.9027 181.701,54.5694 183,58.5C 183.696,61.4781 184.196,64.4781 184.5,67.5C 182.833,67.5 181.167,67.5 179.5,67.5C 177.541,52.5355 169.541,42.2022 155.5,36.5C 151.689,35.3547 147.689,35.1881 143.5,36C 142.944,36.3826 142.611,36.8826 142.5,37.5C 139.222,38.8089 136.222,40.6422 133.5,43C 136.381,45.2787 138.381,48.112 139.5,51.5C 137.673,49.8678 135.839,48.2012 134,46.5C 133.586,46.9574 133.086,47.2907 132.5,47.5C 130.799,46.198 129.632,44.5313 129,42.5C 127.961,43.7101 126.794,44.7101 125.5,45.5C 126.415,43.2459 127.748,41.2459 129.5,39.5C 133.199,37.9809 136.532,35.8142 139.5,33C 144.363,31.3274 149.363,30.494 154.5,30.5 Z"/></g>
<g><path style="opacity:1" fill="#6f834a" d="M 155.5,36.5 C 151.102,36.2941 146.768,36.6274 142.5,37.5C 142.611,36.8826 142.944,36.3826 143.5,36C 147.689,35.1881 151.689,35.3547 155.5,36.5 Z"/></g>
<g><path style="opacity:0.986" fill="#3a6283" d="M 111.5,4.5 C 102.657,9.50166 95.1566,16.1683 89,24.5C 78.5812,39.6644 68.9145,55.3311 60,71.5C 54.6431,79.556 48.8098,87.2227 42.5,94.5C 36.1667,95.8333 29.8333,95.8333 23.5,94.5C 27.757,91.7492 31.5903,88.4158 35,84.5C 50.1578,66.3438 64.1578,47.3438 77,27.5C 83.5687,20.261 90.7354,13.761 98.5,8C 92.7424,9.21946 87.7424,12.0528 83.5,16.5C 82.549,15.6744 81.549,15.5078 80.5,16C 80.8985,18.8573 79.5651,21.024 76.5,22.5C 73.1512,21.1697 72.8179,21.6697 75.5,24C 73.4537,26.9027 70.787,28.736 67.5,29.5C 67.6613,33.8088 65.6613,37.1421 61.5,39.5C 60.5164,42.9648 58.8497,46.1315 56.5,49C 54.8932,49.1151 53.3932,48.6151 52,47.5C 50.2341,48.2335 48.4008,48.5668 46.5,48.5C 48.8628,44.1576 51.5295,40.8242 54.5,38.5C 63.6643,22.5142 76.9977,11.3475 94.5,5C 96.8098,4.50335 99.1432,4.33669 101.5,4.5C 102.167,4.5 102.5,4.83333 102.5,5.5C 103.995,5.01131 105.329,4.34464 106.5,3.5C 107.695,3.32246 108.862,2.98913 110,2.5C 111.03,2.83611 111.53,3.50278 111.5,4.5 Z"/></g>
<g><path style="opacity:1" fill="#2e5362" d="M 177.5,47.5 C 178.5,47.5 179.5,47.5 180.5,47.5C 180.596,51.3107 181.262,51.3107 182.5,47.5C 182.833,48.1667 183.167,48.8333 183.5,49.5C 182.844,51.4534 182.511,53.4534 182.5,55.5C 184.124,55.3601 185.29,56.0267 186,57.5C 186.167,59.1667 186.333,60.8333 186.5,62.5C 186.444,64.6397 185.777,66.3064 184.5,67.5C 184.196,64.4781 183.696,61.4781 183,58.5C 181.701,54.5694 179.868,50.9027 177.5,47.5 Z"/></g>
<g><path style="opacity:0.978" fill="#3a627f" d="M 38.5,59.5 C 40.5917,56.319 42.925,53.319 45.5,50.5C 48.8926,48.523 51.5592,49.1897 53.5,52.5C 51.7349,55.7089 49.7349,58.7089 47.5,61.5C 46.7193,60.2634 45.7193,59.2634 44.5,58.5C 42.4234,59.7849 40.4234,60.1182 38.5,59.5 Z"/></g>
<g><path style="opacity:1" fill="#fbc91c" d="M 139.5,51.5 C 141.821,57.6271 143.821,63.7938 145.5,70C 143.402,70.6776 141.402,70.5109 139.5,69.5C 136.833,69.5 134.167,69.5 131.5,69.5C 130.5,69.5 129.5,69.5 128.5,69.5C 125.375,68.5206 122.042,68.1872 118.5,68.5C 118.336,65.8127 118.503,63.146 119,60.5C 120.296,57.1606 121.463,53.8273 122.5,50.5C 122.75,48.326 123.75,46.6594 125.5,45.5C 126.794,44.7101 127.961,43.7101 129,42.5C 129.632,44.5313 130.799,46.198 132.5,47.5C 133.086,47.2907 133.586,46.9574 134,46.5C 135.839,48.2012 137.673,49.8678 139.5,51.5 Z"/></g>
<g><path style="opacity:1" fill="#3b6282" d="M 88.5,43.5 C 89.675,43.281 90.675,43.6143 91.5,44.5C 87.0037,50.2065 83.5037,56.5398 81,63.5C 76.805,68.5386 73.305,68.372 70.5,63C 71.5697,60.1939 72.903,57.5272 74.5,55C 76.3454,55.7827 78.3454,56.116 80.5,56C 78.8757,54.8829 77.8757,53.3829 77.5,51.5C 78.5608,48.3785 79.8941,45.3785 81.5,42.5C 83.7288,44.553 86.0621,44.8863 88.5,43.5 Z"/></g>
<g><path style="opacity:0.932" fill="#376183" d="M 29.5,73.5 C 31.0948,69.5846 33.4282,66.2512 36.5,63.5C 39.8926,61.523 42.5592,62.1897 44.5,65.5C 43,67.8333 41.5,70.1667 40,72.5C 38.2493,73.8088 36.7493,73.4755 35.5,71.5C 33.5504,72.3721 31.5504,73.0388 29.5,73.5 Z"/></g>
<g><path style="opacity:1" fill="#1b3e3e" d="M 143.5,58.5 C 144.458,58.9528 145.292,59.6195 146,60.5C 146.452,63.1494 147.286,65.6494 148.5,68C 159.008,68.8252 169.342,68.6585 179.5,67.5C 181.167,67.5 182.833,67.5 184.5,67.5C 185.919,68.4511 187.585,68.7845 189.5,68.5C 193.534,68.5045 197.534,68.8379 201.5,69.5C 201.167,70.1667 200.833,70.8333 200.5,71.5C 198.692,71.5086 197.025,71.0086 195.5,70C 179.17,69.5001 162.837,69.3334 146.5,69.5C 146.267,65.5638 145.267,61.8972 143.5,58.5 Z"/></g>
<g><path style="opacity:1" fill="#d8c248" d="M 122.5,50.5 C 121.463,53.8273 120.296,57.1606 119,60.5C 118.503,63.146 118.336,65.8127 118.5,68.5C 122.042,68.1872 125.375,68.5206 128.5,69.5C 124.529,68.7577 121.696,70.091 120,73.5C 118.959,76.9562 118.125,80.4562 117.5,84C 118.028,86.8813 118.694,89.7146 119.5,92.5C 122.713,92.81 125.713,92.4767 128.5,91.5C 130.543,90.4206 131.876,88.754 132.5,86.5C 134.64,84.2995 136.14,81.6328 137,78.5C 137.494,76.8659 137.66,75.1992 137.5,73.5C 138.674,72.4863 139.34,71.153 139.5,69.5C 141.402,70.5109 143.402,70.6776 145.5,70C 143.821,63.7938 141.821,57.6271 139.5,51.5C 141.669,53.3403 143.002,55.6737 143.5,58.5C 145.267,61.8972 146.267,65.5638 146.5,69.5C 162.837,69.3334 179.17,69.5001 195.5,70C 197.025,71.0086 198.692,71.5086 200.5,71.5C 214.789,70.3674 229.122,70.2007 243.5,71C 245.619,71.3418 245.953,72.1751 244.5,73.5C 244.167,73.5 243.833,73.5 243.5,73.5C 242.391,73.4431 241.391,73.1098 240.5,72.5C 237.941,72.1984 235.607,72.5318 233.5,73.5C 232.833,73.1667 232.167,72.8333 231.5,72.5C 228.167,72.5 224.833,72.5 221.5,72.5C 221.5,73.8333 221.5,75.1667 221.5,76.5C 220.837,74.9581 220.17,73.2914 219.5,71.5C 218.943,73.3316 217.943,74.6649 216.5,75.5C 216.5,74.5 216.5,73.5 216.5,72.5C 211.968,72.1818 207.634,72.5151 203.5,73.5C 201.973,73.427 200.973,74.0937 200.5,75.5C 199.5,76.8333 198.5,78.1667 197.5,79.5C 197.896,76.9556 197.229,74.7889 195.5,73C 190.98,72.1864 186.646,72.353 182.5,73.5C 182.167,73.5 181.833,73.5 181.5,73.5C 177.019,72.3516 172.352,72.1849 167.5,73C 166.058,73.3768 165.058,74.2101 164.5,75.5C 163.265,78.3298 162.265,81.3298 161.5,84.5C 160.463,85.9303 159.796,87.597 159.5,89.5C 158.566,90.5676 158.232,91.901 158.5,93.5C 157.5,93.5 156.5,93.5 155.5,93.5C 155.833,90.8333 156.167,88.1667 156.5,85.5C 157.219,83.2362 157.552,80.9029 157.5,78.5C 159.533,77.248 161.2,75.5813 162.5,73.5C 158.217,72.5078 153.884,72.1744 149.5,72.5C 149.5,73.8333 149.5,75.1667 149.5,76.5C 150.791,76.2627 151.791,76.596 152.5,77.5C 151.662,77.8417 151.328,78.5084 151.5,79.5C 149.674,83.5837 148.34,87.917 147.5,92.5C 147.443,93.609 147.11,94.609 146.5,95.5C 146,99.1719 144.667,102.505 142.5,105.5C 142.342,102.639 143.008,99.9724 144.5,97.5C 144.32,96.4461 143.987,95.4461 143.5,94.5C 140.694,93.8324 138.028,93.1657 135.5,92.5C 137.924,92.8076 140.257,92.4742 142.5,91.5C 144.802,85.3213 146.468,78.988 147.5,72.5C 145.167,72.5 142.833,72.5 140.5,72.5C 140.5,73.8333 140.5,75.1667 140.5,76.5C 138.517,79.7994 137.517,83.4661 137.5,87.5C 136.833,88.1667 136.167,88.8333 135.5,89.5C 135.649,88.448 135.483,87.448 135,86.5C 133.229,89.052 131.229,91.3853 129,93.5C 125.224,94.3942 121.39,94.7275 117.5,94.5C 117.5,95.8333 117.5,97.1667 117.5,98.5C 116.224,96.4375 115.39,94.1042 115,91.5C 114.5,84.8417 114.334,78.175 114.5,71.5C 115.949,65.5438 117.783,59.5438 120,53.5C 120.852,52.4293 121.685,51.4293 122.5,50.5 Z"/></g>
<g><path style="opacity:0.957" fill="#3c6181" d="M 67.5,66.5 C 69.3936,67.0476 71.0603,68.0476 72.5,69.5C 74.4325,68.4798 76.4325,68.3131 78.5,69C 76.7093,71.414 75.0426,73.914 73.5,76.5C 71.077,77.7289 68.577,78.7289 66,79.5C 64.3409,78.1832 63.1743,76.5165 62.5,74.5C 64.1933,71.8159 65.86,69.1492 67.5,66.5 Z"/></g>
<g><path style="opacity:1" fill="#2f471f" d="M 157.5,78.5 C 157.5,77.5 157.5,76.5 157.5,75.5C 158.675,75.719 159.675,75.3857 160.5,74.5C 158.257,73.5258 155.924,73.1924 153.5,73.5C 149.665,74.0035 149.665,75.0035 153.5,76.5C 153.376,77.1067 153.043,77.44 152.5,77.5C 151.791,76.596 150.791,76.2627 149.5,76.5C 149.5,75.1667 149.5,73.8333 149.5,72.5C 153.884,72.1744 158.217,72.5078 162.5,73.5C 161.2,75.5813 159.533,77.248 157.5,78.5 Z"/></g>
<g><path style="opacity:1" fill="#2b3f17" d="M 231.5,72.5 C 231.5,72.8333 231.5,73.1667 231.5,73.5C 228.428,73.1826 225.428,73.5159 222.5,74.5C 222.863,75.1835 223.196,75.8501 223.5,76.5C 222.833,76.5 222.167,76.5 221.5,76.5C 221.5,75.1667 221.5,73.8333 221.5,72.5C 224.833,72.5 228.167,72.5 231.5,72.5 Z"/></g>
<g><path style="opacity:1" fill="#2b4341" d="M 131.5,69.5 C 134.167,69.5 136.833,69.5 139.5,69.5C 139.34,71.153 138.674,72.4863 137.5,73.5C 137.5,72.5 137.5,71.5 137.5,70.5C 135.833,70.5 134.167,70.5 132.5,70.5C 132.843,72.4832 132.176,73.8166 130.5,74.5C 130.366,72.7085 130.699,71.0418 131.5,69.5 Z"/></g>
<g><path style="opacity:1" fill="#27423c" d="M 135.5,92.5 C 135.5,91.5 135.5,90.5 135.5,89.5C 136.167,88.8333 136.833,88.1667 137.5,87.5C 137.5,88.5 137.5,89.5 137.5,90.5C 138.978,90.762 140.311,90.4287 141.5,89.5C 143.791,84.7572 145.124,79.7572 145.5,74.5C 143.678,74.8308 142.011,75.4975 140.5,76.5C 140.5,75.1667 140.5,73.8333 140.5,72.5C 142.833,72.5 145.167,72.5 147.5,72.5C 146.468,78.988 144.802,85.3213 142.5,91.5C 140.257,92.4742 137.924,92.8076 135.5,92.5 Z"/></g>
<g><path style="opacity:1" fill="#1a4046" d="M 153.5,73.5 C 155.924,73.1924 158.257,73.5258 160.5,74.5C 159.675,75.3857 158.675,75.719 157.5,75.5C 157.5,76.5 157.5,77.5 157.5,78.5C 157.552,80.9029 157.219,83.2362 156.5,85.5C 155.833,86.5 155.167,87.5 154.5,88.5C 154.848,83.7779 155.515,79.1112 156.5,74.5C 155.209,74.7373 154.209,74.404 153.5,73.5 Z"/></g>
<g><path style="opacity:1" fill="#97a167" d="M 231.5,72.5 C 232.167,72.8333 232.833,73.1667 233.5,73.5C 232.25,76.006 231.584,78.6726 231.5,81.5C 231.5,81.8333 231.5,82.1667 231.5,82.5C 230.317,85.5672 228.983,88.5672 227.5,91.5C 227.158,90.6618 226.492,90.3284 225.5,90.5C 228.245,85.1346 230.245,79.4679 231.5,73.5C 231.5,73.1667 231.5,72.8333 231.5,72.5 Z"/></g>
<g><path style="opacity:1" fill="#223e40" d="M 240.5,72.5 C 240.204,74.403 239.537,76.0697 238.5,77.5C 238.5,76.5 238.5,75.5 238.5,74.5C 237.167,74.5 235.833,74.5 234.5,74.5C 234.818,77.4815 233.818,79.8148 231.5,81.5C 231.584,78.6726 232.25,76.006 233.5,73.5C 235.607,72.5318 237.941,72.1984 240.5,72.5 Z"/></g>
<g><path style="opacity:1" fill="#254136" d="M 203.5,73.5 C 207.634,72.5151 211.968,72.1818 216.5,72.5C 216.5,73.5 216.5,74.5 216.5,75.5C 215.5,77.5 214.5,79.5 213.5,81.5C 213.674,79.139 214.007,76.8056 214.5,74.5C 213.167,74.5 211.833,74.5 210.5,74.5C 210.975,77.3126 209.975,79.3126 207.5,80.5C 207.961,78.4496 208.628,76.4496 209.5,74.5C 209.167,74.1667 208.833,73.8333 208.5,73.5C 207.818,74.2427 207.151,74.9094 206.5,75.5C 206.179,73.9519 205.179,73.2852 203.5,73.5 Z"/></g>
<g><path style="opacity:1" fill="#093b66" d="M 137.5,73.5 C 134.639,77.1447 132.972,81.4781 132.5,86.5C 131.876,88.754 130.543,90.4206 128.5,91.5C 125.833,91.5 123.167,91.5 120.5,91.5C 120.051,89.0225 120.717,87.0225 122.5,85.5C 123.386,86.325 123.719,87.325 123.5,88.5C 125.144,88.7135 126.644,88.3802 128,87.5C 130.173,83.4901 131.006,79.1568 130.5,74.5C 132.176,73.8166 132.843,72.4832 132.5,70.5C 134.167,70.5 135.833,70.5 137.5,70.5C 137.5,71.5 137.5,72.5 137.5,73.5 Z"/></g>
<g><path style="opacity:1" fill="#aeb364" d="M 171.5,81.5 C 169.824,80.8166 169.157,79.4832 169.5,77.5C 170.338,77.1583 170.672,76.4916 170.5,75.5C 171.458,75.0472 172.292,74.3805 173,73.5C 173.428,76.3217 172.928,78.9884 171.5,81.5 Z"/></g>
<g><path style="opacity:1" fill="#376186" d="M 18.5,85.5 C 20.4528,81.8797 23.1195,78.8797 26.5,76.5C 28.5504,76.0388 30.5504,75.3721 32.5,74.5C 34.124,75.8689 34.624,77.5355 34,79.5C 31.8241,81.8749 29.6574,84.2082 27.5,86.5C 24.7672,84.2504 21.7672,83.917 18.5,85.5 Z"/></g>
<g><path style="opacity:0.912" fill="#3a6283" d="M 68.5,83.5 C 67.2017,86.1317 65.2017,88.1317 62.5,89.5C 59.8229,90.6145 57.1562,90.6145 54.5,89.5C 54.0133,88.5539 53.6799,87.5539 53.5,86.5C 55.0662,83.4249 57.2329,80.7583 60,78.5C 62.7952,80.5001 65.6285,82.1667 68.5,83.5 Z"/></g>
<g><path style="opacity:1" fill="#0e3d66" d="M 137.5,87.5 C 137.517,83.4661 138.517,79.7994 140.5,76.5C 142.011,75.4975 143.678,74.8308 145.5,74.5C 145.124,79.7572 143.791,84.7572 141.5,89.5C 140.311,90.4287 138.978,90.762 137.5,90.5C 137.5,89.5 137.5,88.5 137.5,87.5 Z"/></g>
<g><path style="opacity:1" fill="#063c64" d="M 153.5,73.5 C 154.209,74.404 155.209,74.7373 156.5,74.5C 155.515,79.1112 154.848,83.7779 154.5,88.5C 154.5,89.1667 154.5,89.8333 154.5,90.5C 152.801,90.6602 151.134,90.4935 149.5,90C 150.54,86.5998 151.206,83.0998 151.5,79.5C 151.328,78.5084 151.662,77.8417 152.5,77.5C 153.043,77.44 153.376,77.1067 153.5,76.5C 149.665,75.0035 149.665,74.0035 153.5,73.5 Z"/></g>
<g><path style="opacity:1" fill="#234137" d="M 181.5,73.5 C 180.833,74.5 180.167,75.5 179.5,76.5C 178.448,74.744 176.781,74.0773 174.5,74.5C 174.662,76.5273 174.495,78.5273 174,80.5C 173.329,81.2524 172.496,81.5858 171.5,81.5C 172.928,78.9884 173.428,76.3217 173,73.5C 172.292,74.3805 171.458,75.0472 170.5,75.5C 168.653,74.4271 166.653,74.4271 164.5,75.5C 165.058,74.2101 166.058,73.3768 167.5,73C 172.352,72.1849 177.019,72.3516 181.5,73.5 Z"/></g>
<g><path style="opacity:1" fill="#b9b45e" d="M 207.5,80.5 C 207.5,81.1667 207.167,81.5 206.5,81.5C 205.167,79.5 205.167,77.5 206.5,75.5C 207.151,74.9094 207.818,74.2427 208.5,73.5C 208.833,73.8333 209.167,74.1667 209.5,74.5C 208.628,76.4496 207.961,78.4496 207.5,80.5 Z"/></g>
<g><path style="opacity:1" fill="#f6c823" d="M 221.5,76.5 C 222.167,76.5 222.833,76.5 223.5,76.5C 222.664,80.3225 221.664,83.9892 220.5,87.5C 218.5,87.5 216.5,87.5 214.5,87.5C 214.958,83.4616 215.624,79.4616 216.5,75.5C 217.943,74.6649 218.943,73.3316 219.5,71.5C 220.17,73.2914 220.837,74.9581 221.5,76.5 Z"/></g>
<g><path style="opacity:1" fill="#1f4344" d="M 137.5,73.5 C 137.66,75.1992 137.494,76.8659 137,78.5C 136.14,81.6328 134.64,84.2995 132.5,86.5C 132.972,81.4781 134.639,77.1447 137.5,73.5 Z"/></g>
<g><path style="opacity:1" fill="#244538" d="M 243.5,74.5 C 242.626,77.9188 241.46,81.2522 240,84.5C 239.333,86.5 239.333,88.5 240,90.5C 243.057,91.4505 246.223,91.7839 249.5,91.5C 246.36,92.6408 243.027,92.8075 239.5,92C 238.619,91.2917 237.953,90.4584 237.5,89.5C 238.329,86.1849 239.162,82.8516 240,79.5C 240.697,77.4156 241.864,75.7489 243.5,74.5 Z"/></g>
<g><path style="opacity:1" fill="#224149" d="M 128.5,69.5 C 128.125,71.6976 127.458,73.6976 126.5,75.5C 126.5,73.8333 126.5,72.1667 126.5,70.5C 125.167,70.5 123.833,70.5 122.5,70.5C 121.412,74.6658 120.079,78.8325 118.5,83C 118.667,83.5 118.833,84 119,84.5C 120.264,82.393 122.097,81.393 124.5,81.5C 124.077,79.2188 124.744,77.5521 126.5,76.5C 125.503,80.1369 125.003,83.8036 125,87.5C 125.667,86.8333 126.333,86.1667 127,85.5C 127.904,81.6276 129.07,77.9609 130.5,74.5C 131.006,79.1568 130.173,83.4901 128,87.5C 126.644,88.3802 125.144,88.7135 123.5,88.5C 123.719,87.325 123.386,86.325 122.5,85.5C 120.717,87.0225 120.051,89.0225 120.5,91.5C 123.167,91.5 125.833,91.5 128.5,91.5C 125.713,92.4767 122.713,92.81 119.5,92.5C 118.694,89.7146 118.028,86.8813 117.5,84C 118.125,80.4562 118.959,76.9562 120,73.5C 121.696,70.091 124.529,68.7577 128.5,69.5 Z"/></g>
<g><path style="opacity:1" fill="#033c69" d="M 126.5,75.5 C 126.5,75.8333 126.5,76.1667 126.5,76.5C 124.744,77.5521 124.077,79.2188 124.5,81.5C 122.097,81.393 120.264,82.393 119,84.5C 118.833,84 118.667,83.5 118.5,83C 120.079,78.8325 121.412,74.6658 122.5,70.5C 123.833,70.5 125.167,70.5 126.5,70.5C 126.5,72.1667 126.5,73.8333 126.5,75.5 Z"/></g>
<g><path style="opacity:1" fill="#ccbd61" d="M 128.5,69.5 C 129.5,69.5 130.5,69.5 131.5,69.5C 130.699,71.0418 130.366,72.7085 130.5,74.5C 129.07,77.9609 127.904,81.6276 127,85.5C 126.333,86.1667 125.667,86.8333 125,87.5C 125.003,83.8036 125.503,80.1369 126.5,76.5C 126.5,76.1667 126.5,75.8333 126.5,75.5C 127.458,73.6976 128.125,71.6976 128.5,69.5 Z"/></g>
<g><path style="opacity:1" fill="#0b3d68" d="M 170.5,75.5 C 170.672,76.4916 170.338,77.1583 169.5,77.5C 167.553,81.1585 166.553,85.1585 166.5,89.5C 164.806,91.4376 162.806,91.7709 160.5,90.5C 161.348,88.5914 161.682,86.5914 161.5,84.5C 162.265,81.3298 163.265,78.3298 164.5,75.5C 166.653,74.4271 168.653,74.4271 170.5,75.5 Z"/></g>
<g><path style="opacity:1" fill="#204142" d="M 169.5,77.5 C 169.157,79.4832 169.824,80.8166 171.5,81.5C 171.492,84.5448 171.159,87.5448 170.5,90.5C 171.833,90.5 173.167,90.5 174.5,90.5C 174.273,88.0672 175.273,86.4006 177.5,85.5C 176.833,87.5 176.167,89.5 175.5,91.5C 173.393,92.4682 171.059,92.8016 168.5,92.5C 168.756,90.0628 169.423,87.7294 170.5,85.5C 169.998,84.479 169.332,84.3123 168.5,85C 167.901,86.6225 167.234,88.1225 166.5,89.5C 166.553,85.1585 167.553,81.1585 169.5,77.5 Z"/></g>
<g><path style="opacity:1" fill="#043b6a" d="M 179.5,76.5 C 178.08,79.2613 177.413,82.2613 177.5,85.5C 175.273,86.4006 174.273,88.0672 174.5,90.5C 173.167,90.5 171.833,90.5 170.5,90.5C 171.159,87.5448 171.492,84.5448 171.5,81.5C 172.496,81.5858 173.329,81.2524 174,80.5C 174.495,78.5273 174.662,76.5273 174.5,74.5C 176.781,74.0773 178.448,74.744 179.5,76.5 Z"/></g>
<g><path style="opacity:1" fill="#274639" d="M 200.5,75.5 C 199.167,80.8333 197.833,86.1667 196.5,91.5C 198.858,91.7475 200.858,91.0808 202.5,89.5C 202.586,90.4959 202.252,91.3292 201.5,92C 199.19,92.4966 196.857,92.6633 194.5,92.5C 195.707,88.2138 196.707,83.8805 197.5,79.5C 198.5,78.1667 199.5,76.8333 200.5,75.5 Z"/></g>
<g><path style="opacity:1" fill="#103d67" d="M 213.5,81.5 C 213.829,84.2282 213.163,86.5615 211.5,88.5C 211.611,86.3523 210.944,86.019 209.5,87.5C 208.571,86.3112 208.238,84.9778 208.5,83.5C 206.007,83.8693 205.34,83.2027 206.5,81.5C 207.167,81.5 207.5,81.1667 207.5,80.5C 209.975,79.3126 210.975,77.3126 210.5,74.5C 211.833,74.5 213.167,74.5 214.5,74.5C 214.007,76.8056 213.674,79.139 213.5,81.5 Z"/></g>
<g><path style="opacity:1" fill="#a0aa71" d="M 240.5,72.5 C 241.391,73.1098 242.391,73.4431 243.5,73.5C 243.5,73.8333 243.5,74.1667 243.5,74.5C 241.864,75.7489 240.697,77.4156 240,79.5C 239.162,82.8516 238.329,86.1849 237.5,89.5C 236.833,89.8333 236.167,90.1667 235.5,90.5C 236.038,88.8828 236.371,87.2161 236.5,85.5C 237.768,83.0948 238.435,80.4282 238.5,77.5C 239.537,76.0697 240.204,74.403 240.5,72.5 Z"/></g>
<g><path style="opacity:1" fill="#35638a" d="M 128.5,162.5 C 124.236,162.656 120.236,161.989 116.5,160.5C 115.167,159.833 113.833,159.167 112.5,158.5C 112.5,157.833 112.167,157.5 111.5,157.5C 110.91,156.234 110.41,154.901 110,153.5C 109.31,152.262 108.81,152.262 108.5,153.5C 106.687,154.386 104.52,155.053 102,155.5C 100.076,155.419 98.2429,155.086 96.5,154.5C 96.7373,153.209 96.404,152.209 95.5,151.5C 93.5393,150.54 91.8726,149.207 90.5,147.5C 90.1667,146.167 89.8333,146.167 89.5,147.5C 89.6495,148.552 89.4828,149.552 89,150.5C 87.5394,148.407 85.706,146.74 83.5,145.5C 83.8016,142.941 83.4682,140.607 82.5,138.5C 81.7638,136.771 80.4305,135.771 78.5,135.5C 80.0781,133.625 79.7448,132.292 77.5,131.5C 77.5,131.167 77.5,130.833 77.5,130.5C 77.5,130.167 77.5,129.833 77.5,129.5C 77.5,128.833 77.1667,128.5 76.5,128.5C 76.5,128.167 76.5,127.833 76.5,127.5C 77.4345,126.432 77.7678,125.099 77.5,123.5C 76.5,123.5 75.5,123.5 74.5,123.5C 74.1667,123.5 73.8333,123.5 73.5,123.5C 73.5,123.167 73.5,122.833 73.5,122.5C 73.6716,121.508 73.3382,120.842 72.5,120.5C 72.5,120.167 72.5,119.833 72.5,119.5C 72.1667,118.167 71.8333,118.167 71.5,119.5C 70.209,119.263 69.209,119.596 68.5,120.5C 68.1667,120.5 67.8333,120.5 67.5,120.5C 66.8333,120.167 66.1667,119.833 65.5,119.5C 65.5,118.167 65.5,116.833 65.5,115.5C 66.8333,115.5 68.1667,115.5 69.5,115.5C 69.8966,116.525 70.5632,116.692 71.5,116C 70.9152,114.698 70.2485,113.531 69.5,112.5C 68.9094,111.849 68.2427,111.182 67.5,110.5C 67.6236,109.893 67.9569,109.56 68.5,109.5C 68.1667,108.833 67.8333,108.167 67.5,107.5C 68.5735,106.749 68.7401,105.749 68,104.5C 67.2828,105.044 66.7828,105.711 66.5,106.5C 66.2178,107.778 65.5511,108.778 64.5,109.5C 64.5,109.833 64.5,110.167 64.5,110.5C 64.1667,110.5 63.8333,110.5 63.5,110.5C 63.1667,110.5 62.8333,110.5 62.5,110.5C 62.7678,108.901 62.4345,107.568 61.5,106.5C 60.3079,105.434 60.6412,104.601 62.5,104C 59.7176,102.424 56.8843,102.257 54,103.5C 52.9889,102.944 52.1556,102.278 51.5,101.5C 53.9686,100.683 56.6353,100.183 59.5,100C 74.7783,90.2494 85.9449,77.0828 93,60.5C 88.9007,85.3729 92.5674,109.04 104,131.5C 113.878,149.524 129.044,159.691 149.5,162C 142.508,162.5 135.508,162.666 128.5,162.5 Z M 67.5,107.5 C 67.5,106.833 67.1667,106.5 66.5,106.5C 66.7828,105.711 67.2828,105.044 68,104.5C 68.7401,105.749 68.5735,106.749 67.5,107.5 Z M 81.5,107.5 C 79.2398,106.762 79.0731,105.762 81,104.5C 81.4828,105.448 81.6495,106.448 81.5,107.5 Z M 81.5,107.5 C 84.3237,106.089 86.9904,106.255 89.5,108C 85.9313,106.642 83.4313,107.808 82,111.5C 81.51,110.207 81.3433,108.873 81.5,107.5 Z M 75.5,109.5 C 76.2674,110.172 76.9341,111.005 77.5,112C 75.9387,112.188 75.272,111.355 75.5,109.5 Z M 87.5,116.5 C 89.288,116.215 90.9547,116.548 92.5,117.5C 89.7995,117.136 87.2995,118.136 85,120.5C 84.3333,119.833 84.3333,119.167 85,118.5C 85.9947,117.934 86.828,117.267 87.5,116.5 Z M 80.5,120.5 C 81.7125,121.497 81.5458,122.497 80,123.5C 79.5304,122.423 79.6971,121.423 80.5,120.5 Z M 86.5,123.5 C 87.2674,124.172 87.9341,125.005 88.5,126C 86.9387,126.188 86.272,125.355 86.5,123.5 Z M 83.5,131.5 C 84.0768,130.227 84.7435,130.227 85.5,131.5C 85.0302,132.463 84.3635,132.463 83.5,131.5 Z M 90.5,138.5 C 90.3367,136.143 90.5034,133.81 91,131.5C 92.3383,133.861 92.1717,136.195 90.5,138.5 Z M 96.5,135.5 C 98.5167,134.126 100.517,134.293 102.5,136C 100.575,135.865 98.5753,135.698 96.5,135.5 Z M 90.5,138.5 C 90.4891,141.001 89.8224,141.168 88.5,139C 89.0944,138.536 89.7611,138.369 90.5,138.5 Z M 100.5,142.5 C 102.975,142.747 102.975,143.413 100.5,144.5C 99.537,144.03 99.537,143.363 100.5,142.5 Z M 94.5,145.5 C 95.8333,145.5 96.5,146.167 96.5,147.5C 95.5,147.167 94.8333,146.5 94.5,145.5 Z M 101.5,151.5 C 102.29,150.391 102.79,149.058 103,147.5C 103.667,149.5 103.667,151.5 103,153.5C 102.283,152.956 101.783,152.289 101.5,151.5 Z"/></g>
<g><path style="opacity:1" fill="#5d7a60" d="M 181.5,73.5 C 181.833,73.5 182.167,73.5 182.5,73.5C 180.837,79.4845 179.17,85.4845 177.5,91.5C 181.5,91.5 185.5,91.5 189.5,91.5C 184.934,92.7973 180.267,92.7973 175.5,91.5C 176.167,89.5 176.833,87.5 177.5,85.5C 177.413,82.2613 178.08,79.2613 179.5,76.5C 180.167,75.5 180.833,74.5 181.5,73.5 Z"/></g>
<g><path style="opacity:0.943" fill="#244351" d="M 260.5,68.5 C 261.167,68.8333 261.833,69.1667 262.5,69.5C 262.5,73.5 262.5,77.5 262.5,81.5C 261.317,84.5672 259.983,87.5672 258.5,90.5C 256.589,91.075 254.922,92.075 253.5,93.5C 257.663,87.1659 259.497,80.1659 259,72.5C 257.855,71.3636 256.688,70.3636 255.5,69.5C 257.415,69.7845 259.081,69.4511 260.5,68.5 Z"/></g>
<g><path style="opacity:1" fill="#315257" d="M 114.5,71.5 C 114.334,78.175 114.5,84.8417 115,91.5C 115.39,94.1042 116.224,96.4375 117.5,98.5C 117.718,103.387 119.385,107.72 122.5,111.5C 122.5,112.167 122.5,112.833 122.5,113.5C 119.954,111.435 118.12,108.768 117,105.5C 114.661,97.4475 113.161,89.2809 112.5,81C 112.515,77.4242 113.182,74.2575 114.5,71.5 Z"/></g>
<g><path style="opacity:1" fill="#093d66" d="M 238.5,77.5 C 238.435,80.4282 237.768,83.0948 236.5,85.5C 234.787,86.6354 234.12,88.302 234.5,90.5C 233.167,90.5 231.833,90.5 230.5,90.5C 230.833,87.8333 231.167,85.1667 231.5,82.5C 231.5,82.1667 231.5,81.8333 231.5,81.5C 233.818,79.8148 234.818,77.4815 234.5,74.5C 235.833,74.5 237.167,74.5 238.5,74.5C 238.5,75.5 238.5,76.5 238.5,77.5 Z"/></g>
<g><path style="opacity:1" fill="#123d5f" d="M 243.5,73.5 C 243.833,73.5 244.167,73.5 244.5,73.5C 245.978,73.238 247.311,73.5713 248.5,74.5C 248.376,75.1067 248.043,75.44 247.5,75.5C 245.044,79.7259 244.044,84.3925 244.5,89.5C 245.822,89.67 246.989,89.3366 248,88.5C 248.977,86.26 249.477,83.9267 249.5,81.5C 249.079,76.0738 251.412,73.5738 256.5,74C 256.755,78.861 255.922,83.6944 254,88.5C 252.6,89.748 251.1,90.748 249.5,91.5C 246.223,91.7839 243.057,91.4505 240,90.5C 239.333,88.5 239.333,86.5 240,84.5C 241.46,81.2522 242.626,77.9188 243.5,74.5C 243.5,74.1667 243.5,73.8333 243.5,73.5 Z"/></g>
<g><path style="opacity:1" fill="#24413f" d="M 151.5,79.5 C 151.206,83.0998 150.54,86.5998 149.5,90C 151.134,90.4935 152.801,90.6602 154.5,90.5C 152.721,92.3435 150.388,93.0102 147.5,92.5C 148.34,87.917 149.674,83.5837 151.5,79.5 Z"/></g>
<g><path style="opacity:1" fill="#143d5c" d="M 203.5,73.5 C 205.179,73.2852 206.179,73.9519 206.5,75.5C 205.167,77.5 205.167,79.5 206.5,81.5C 205.34,83.2027 206.007,83.8693 208.5,83.5C 208.238,84.9778 208.571,86.3112 209.5,87.5C 210.944,86.019 211.611,86.3523 211.5,88.5C 211.5,89.8333 211.5,91.1667 211.5,92.5C 209.167,92.5 206.833,92.5 204.5,92.5C 205.205,89.7557 205.205,87.089 204.5,84.5C 203.438,86.0217 202.771,87.6883 202.5,89.5C 200.858,91.0808 198.858,91.7475 196.5,91.5C 197.833,86.1667 199.167,80.8333 200.5,75.5C 200.973,74.0937 201.973,73.427 203.5,73.5 Z"/></g>
<g><path style="opacity:1" fill="#143c5b" d="M 231.5,73.5 C 230.245,79.4679 228.245,85.1346 225.5,90.5C 221.869,91.412 218.203,91.5787 214.5,91C 216.058,90.79 217.391,90.29 218.5,89.5C 219.5,89.1667 220.167,88.5 220.5,87.5C 221.664,83.9892 222.664,80.3225 223.5,76.5C 223.196,75.8501 222.863,75.1835 222.5,74.5C 225.428,73.5159 228.428,73.1826 231.5,73.5 Z"/></g>
<g><path style="opacity:1" fill="#183e59" d="M 197.5,79.5 C 194.17,80.4644 193.17,82.4644 194.5,85.5C 194.222,88.7535 192.555,90.7535 189.5,91.5C 185.5,91.5 181.5,91.5 177.5,91.5C 179.17,85.4845 180.837,79.4845 182.5,73.5C 186.646,72.353 190.98,72.1864 195.5,73C 197.229,74.7889 197.896,76.9556 197.5,79.5 Z"/></g>
<g><path style="opacity:1" fill="#bab86a" d="M 189.5,73.5 C 190.497,73.4701 191.164,73.9701 191.5,75C 190.125,79.6252 188.459,84.1252 186.5,88.5C 186.167,87.8333 185.833,87.1667 185.5,86.5C 186.684,82.0903 188.017,77.757 189.5,73.5 Z"/></g>
<g><path style="opacity:1" fill="#294826" d="M 161.5,84.5 C 161.682,86.5914 161.348,88.5914 160.5,90.5C 162.806,91.7709 164.806,91.4376 166.5,89.5C 166.5,90.5 166.5,91.5 166.5,92.5C 164.167,92.5 161.833,92.5 159.5,92.5C 159.5,91.5 159.5,90.5 159.5,89.5C 159.796,87.597 160.463,85.9303 161.5,84.5 Z"/></g>
<g><path style="opacity:1" fill="#376084" d="M 21.5,94.5 C 16.7019,95.744 12.0352,95.744 7.5,94.5C 8.16667,94.5 8.5,94.1667 8.5,93.5C 9.16667,93.5 9.5,93.1667 9.5,92.5C 10.8717,91.4884 12.205,90.4884 13.5,89.5C 16.4929,88.8654 19.4929,88.6987 22.5,89C 23.7573,91.0765 23.424,92.9098 21.5,94.5 Z"/></g>
<g><path style="opacity:1" fill="#b8b35b" d="M 201.5,69.5 C 219.5,69.5 237.5,69.5 255.5,69.5C 256.688,70.3636 257.855,71.3636 259,72.5C 259.497,80.1659 257.663,87.1659 253.5,93.5C 252.508,93.3284 251.842,93.6618 251.5,94.5C 216.543,95.4866 181.543,95.82 146.5,95.5C 147.11,94.609 147.443,93.609 147.5,92.5C 150.388,93.0102 152.721,92.3435 154.5,90.5C 154.5,89.8333 154.5,89.1667 154.5,88.5C 155.167,87.5 155.833,86.5 156.5,85.5C 156.167,88.1667 155.833,90.8333 155.5,93.5C 156.5,93.5 157.5,93.5 158.5,93.5C 158.232,91.901 158.566,90.5676 159.5,89.5C 159.5,90.5 159.5,91.5 159.5,92.5C 161.833,92.5 164.167,92.5 166.5,92.5C 166.5,91.5 166.5,90.5 166.5,89.5C 167.234,88.1225 167.901,86.6225 168.5,85C 169.332,84.3123 169.998,84.479 170.5,85.5C 169.423,87.7294 168.756,90.0628 168.5,92.5C 171.059,92.8016 173.393,92.4682 175.5,91.5C 180.267,92.7973 184.934,92.7973 189.5,91.5C 192.555,90.7535 194.222,88.7535 194.5,85.5C 193.17,82.4644 194.17,80.4644 197.5,79.5C 196.707,83.8805 195.707,88.2138 194.5,92.5C 196.857,92.6633 199.19,92.4966 201.5,92C 202.252,91.3292 202.586,90.4959 202.5,89.5C 202.771,87.6883 203.438,86.0217 204.5,84.5C 205.205,87.089 205.205,89.7557 204.5,92.5C 206.833,92.5 209.167,92.5 211.5,92.5C 211.5,91.1667 211.5,89.8333 211.5,88.5C 213.163,86.5615 213.829,84.2282 213.5,81.5C 214.5,79.5 215.5,77.5 216.5,75.5C 215.624,79.4616 214.958,83.4616 214.5,87.5C 216.5,87.5 218.5,87.5 220.5,87.5C 220.167,88.5 219.5,89.1667 218.5,89.5C 215.955,89.1505 213.955,89.9838 212.5,92C 216.167,92.6667 219.833,92.6667 223.5,92C 224.416,91.7216 225.082,91.2216 225.5,90.5C 226.492,90.3284 227.158,90.6618 227.5,91.5C 228.622,92.1558 229.955,92.4892 231.5,92.5C 233.333,92.4146 234.666,91.7479 235.5,90.5C 236.167,90.1667 236.833,89.8333 237.5,89.5C 237.953,90.4584 238.619,91.2917 239.5,92C 243.027,92.8075 246.36,92.6408 249.5,91.5C 251.1,90.748 252.6,89.748 254,88.5C 255.922,83.6944 256.755,78.861 256.5,74C 251.412,73.5738 249.079,76.0738 249.5,81.5C 248.442,83.8084 247.276,86.1417 246,88.5C 246.454,84.2167 246.954,79.8834 247.5,75.5C 248.043,75.44 248.376,75.1067 248.5,74.5C 247.311,73.5713 245.978,73.238 244.5,73.5C 245.953,72.1751 245.619,71.3418 243.5,71C 229.122,70.2007 214.789,70.3674 200.5,71.5C 200.833,70.8333 201.167,70.1667 201.5,69.5 Z"/></g>
<g><path style="opacity:1" fill="#25432b" d="M 218.5,89.5 C 217.391,90.29 216.058,90.79 214.5,91C 218.203,91.5787 221.869,91.412 225.5,90.5C 225.082,91.2216 224.416,91.7216 223.5,92C 219.833,92.6667 216.167,92.6667 212.5,92C 213.955,89.9838 215.955,89.1505 218.5,89.5 Z"/></g>
<g><path style="opacity:1" fill="#1f3e3b" d="M 231.5,82.5 C 231.167,85.1667 230.833,87.8333 230.5,90.5C 231.833,90.5 233.167,90.5 234.5,90.5C 234.12,88.302 234.787,86.6354 236.5,85.5C 236.371,87.2161 236.038,88.8828 235.5,90.5C 234.666,91.7479 233.333,92.4146 231.5,92.5C 229.955,92.4892 228.622,92.1558 227.5,91.5C 228.983,88.5672 230.317,85.5672 231.5,82.5 Z"/></g>
<g><path style="opacity:1" fill="#2e4d42" d="M 247.5,75.5 C 246.954,79.8834 246.454,84.2167 246,88.5C 247.276,86.1417 248.442,83.8084 249.5,81.5C 249.477,83.9267 248.977,86.26 248,88.5C 246.989,89.3366 245.822,89.67 244.5,89.5C 244.044,84.3925 245.044,79.7259 247.5,75.5 Z"/></g>
<g><path style="opacity:1" fill="#fbc91b" d="M 135.5,89.5 C 135.5,90.5 135.5,91.5 135.5,92.5C 138.028,93.1657 140.694,93.8324 143.5,94.5C 143.987,95.4461 144.32,96.4461 144.5,97.5C 143.008,99.9724 142.342,102.639 142.5,105.5C 140.475,106.565 138.642,107.898 137,109.5C 136.586,109.043 136.086,108.709 135.5,108.5C 135.331,110.117 134.997,111.784 134.5,113.5C 132.283,111.321 130.283,111.321 128.5,113.5C 126.821,111.896 124.821,111.229 122.5,111.5C 119.385,107.72 117.718,103.387 117.5,98.5C 117.5,97.1667 117.5,95.8333 117.5,94.5C 121.39,94.7275 125.224,94.3942 129,93.5C 131.229,91.3853 133.229,89.052 135,86.5C 135.483,87.448 135.649,88.448 135.5,89.5 Z"/></g>
<g><path style="opacity:1" fill="#21434d" d="M 251.5,94.5 C 251.389,95.1174 251.056,95.6174 250.5,96C 228.33,96.168 206.33,96.668 184.5,97.5C 185.183,103.034 183.849,108.034 180.5,112.5C 181.325,113.386 182.325,113.719 183.5,113.5C 183.496,115.842 182.663,117.842 181,119.5C 180.481,118.484 179.647,117.818 178.5,117.5C 177.133,118.225 175.8,118.892 174.5,119.5C 179.176,112.82 182.176,105.487 183.5,97.5C 182.167,97.5 180.833,97.5 179.5,97.5C 168.993,96.1765 158.326,96.1765 147.5,97.5C 146.51,100.892 145.343,104.226 144,107.5C 143.502,109.544 142.335,110.878 140.5,111.5C 141.167,109.5 141.833,107.5 142.5,105.5C 144.667,102.505 146,99.1719 146.5,95.5C 181.543,95.82 216.543,95.4866 251.5,94.5 Z"/></g>
<g><path style="opacity:1" fill="#043d6d" d="M 179.5,97.5 C 177.461,98.911 176.461,100.911 176.5,103.5C 174.488,102.986 172.488,102.82 170.5,103C 172.158,103.725 172.658,104.892 172,106.5C 171.667,106.167 171.333,105.833 171,105.5C 169.356,108.747 169.189,112.08 170.5,115.5C 168.086,116.911 166.419,118.911 165.5,121.5C 163.278,122.688 160.945,123.688 158.5,124.5C 151.671,124.867 145.004,124.034 138.5,122C 136.166,120.158 135.832,117.991 137.5,115.5C 137.738,113.596 138.738,112.262 140.5,111.5C 142.335,110.878 143.502,109.544 144,107.5C 145.343,104.226 146.51,100.892 147.5,97.5C 158.326,96.1765 168.993,96.1765 179.5,97.5 Z"/></g>
<g><path style="opacity:1" fill="#204359" d="M 179.5,97.5 C 177.632,104.129 174.632,110.129 170.5,115.5C 169.189,112.08 169.356,108.747 171,105.5C 171.333,105.833 171.667,106.167 172,106.5C 172.658,104.892 172.158,103.725 170.5,103C 172.488,102.82 174.488,102.986 176.5,103.5C 176.461,100.911 177.461,98.911 179.5,97.5 Z"/></g>
<g><path style="opacity:1" fill="#efc830" d="M 179.5,97.5 C 180.833,97.5 182.167,97.5 183.5,97.5C 182.176,105.487 179.176,112.82 174.5,119.5C 171,122.831 167.334,125.998 163.5,129C 161.942,129.21 160.609,129.71 159.5,130.5C 148.363,133.561 138.696,131.228 130.5,123.5C 127.423,120.431 124.756,117.097 122.5,113.5C 122.5,112.833 122.5,112.167 122.5,111.5C 124.821,111.229 126.821,111.896 128.5,113.5C 130.283,111.321 132.283,111.321 134.5,113.5C 134.997,111.784 135.331,110.117 135.5,108.5C 136.086,108.709 136.586,109.043 137,109.5C 138.642,107.898 140.475,106.565 142.5,105.5C 141.833,107.5 141.167,109.5 140.5,111.5C 138.738,112.262 137.738,113.596 137.5,115.5C 135.978,116.191 134.978,117.358 134.5,119C 137.69,124.494 142.524,126.994 149,126.5C 152.451,126.579 155.618,125.913 158.5,124.5C 160.945,123.688 163.278,122.688 165.5,121.5C 167.914,120.089 169.581,118.089 170.5,115.5C 174.632,110.129 177.632,104.129 179.5,97.5 Z"/></g>
<g><path style="opacity:1" fill="#738645" d="M 170.5,115.5 C 169.581,118.089 167.914,120.089 165.5,121.5C 166.419,118.911 168.086,116.911 170.5,115.5 Z"/></g>
<g><path style="opacity:1" fill="#264341" d="M 137.5,115.5 C 135.832,117.991 136.166,120.158 138.5,122C 145.004,124.034 151.671,124.867 158.5,124.5C 155.618,125.913 152.451,126.579 149,126.5C 142.524,126.994 137.69,124.494 134.5,119C 134.978,117.358 135.978,116.191 137.5,115.5 Z"/></g>
<g><path style="opacity:0.937" fill="#376080" d="M 51.5,101.5 C 52.1556,102.278 52.9889,102.944 54,103.5C 56.8843,102.257 59.7176,102.424 62.5,104C 60.6412,104.601 60.3079,105.434 61.5,106.5C 61.67,107.822 61.3366,108.989 60.5,110C 61.0944,110.464 61.7611,110.631 62.5,110.5C 62.8333,111.833 63.1667,111.833 63.5,110.5C 63.8333,110.5 64.1667,110.5 64.5,110.5C 65.8333,110.167 65.8333,109.833 64.5,109.5C 65.5511,108.778 66.2178,107.778 66.5,106.5C 67.1667,106.5 67.5,106.833 67.5,107.5C 67.8333,108.167 68.1667,108.833 68.5,109.5C 67.9569,109.56 67.6236,109.893 67.5,110.5C 68.2427,111.182 68.9094,111.849 69.5,112.5C 69.5,113.5 69.5,114.5 69.5,115.5C 68.1667,115.5 66.8333,115.5 65.5,115.5C 64.1667,116.833 64.1667,118.167 65.5,119.5C 66.1667,119.833 66.8333,120.167 67.5,120.5C 66.537,121.363 66.537,122.03 67.5,122.5C 68.2975,122.043 68.6309,121.376 68.5,120.5C 69.209,119.596 70.209,119.263 71.5,119.5C 71.8333,119.5 72.1667,119.5 72.5,119.5C 72.5,119.833 72.5,120.167 72.5,120.5C 72.3284,121.492 72.6618,122.158 73.5,122.5C 73.5,122.833 73.5,123.167 73.5,123.5C 73.8333,126.167 74.1667,126.167 74.5,123.5C 75.5,123.5 76.5,123.5 77.5,123.5C 77.7678,125.099 77.4345,126.432 76.5,127.5C 75.1667,127.833 75.1667,128.167 76.5,128.5C 77.1667,128.5 77.5,128.833 77.5,129.5C 76.1667,129.833 76.1667,130.167 77.5,130.5C 77.5,130.833 77.5,131.167 77.5,131.5C 77.7564,133.792 77.4231,135.959 76.5,138C 78.0613,138.188 78.728,137.355 78.5,135.5C 80.4305,135.771 81.7638,136.771 82.5,138.5C 82.1984,141.059 82.5318,143.393 83.5,145.5C 85.706,146.74 87.5394,148.407 89,150.5C 89.4828,149.552 89.6495,148.552 89.5,147.5C 89.8333,147.5 90.1667,147.5 90.5,147.5C 91.8726,149.207 93.5393,150.54 95.5,151.5C 95.1596,153.548 95.4929,154.548 96.5,154.5C 98.2429,155.086 100.076,155.419 102,155.5C 104.52,155.053 106.687,154.386 108.5,153.5C 108.088,155.973 109.088,157.306 111.5,157.5C 112.167,157.5 112.5,157.833 112.5,158.5C 113.833,159.167 115.167,159.833 116.5,160.5C 86.0137,160.522 65.5137,146.189 55,117.5C 53.3616,113.278 52.1949,108.945 51.5,104.5C 51.5,103.5 51.5,102.5 51.5,101.5 Z M 68.5,125.5 C 71.1759,128.06 70.5093,129.226 66.5,129C 67.8228,128.184 68.4894,127.017 68.5,125.5 Z M 67.5,120.5 C 67.8333,120.5 68.1667,120.5 68.5,120.5C 68.6309,121.376 68.2975,122.043 67.5,122.5C 66.537,122.03 66.537,121.363 67.5,120.5 Z M 61.5,106.5 C 62.4345,107.568 62.7678,108.901 62.5,110.5C 61.7611,110.631 61.0944,110.464 60.5,110C 61.3366,108.989 61.67,107.822 61.5,106.5 Z M 70.5,130.5 C 71.0768,129.227 71.7435,129.227 72.5,130.5C 72.0302,131.463 71.3635,131.463 70.5,130.5 Z M 78.5,142.5 C 80.9752,142.747 80.9752,143.413 78.5,144.5C 77.537,144.03 77.537,143.363 78.5,142.5 Z"/></g>
<g><path style="opacity:1" fill="#485f4d" d="M 130.5,123.5 C 138.696,131.228 148.363,133.561 159.5,130.5C 157.085,131.814 154.252,132.481 151,132.5C 148.167,132.333 145.333,132.167 142.5,132C 139.709,130.211 136.709,128.878 133.5,128C 131.859,126.871 130.859,125.371 130.5,123.5 Z"/></g>
</svg>
